<svg width="270" height="90" viewBox="0 0 270 90" fill="none" xmlns="http://www.w3.org/2000/svg">
<g opacity="0.75">
<path d="M26.3415 63.4186L8.15039 22.2092H25.205L35.4371 48.4552H36.4939L46.8057 22.2092H63.5346L45.1806 63.4186H26.3415Z" fill="#644E3C"/>
<path d="M64.7529 42.8143C64.7529 29.407 74.4168 21.3933 88.0584 21.3933C102.189 21.3933 111.201 28.5069 111.201 41.7503C111.201 43.1388 111.121 44.2029 110.958 45.6751H78.8831C79.1257 50.6641 81.319 52.0526 87.8158 52.0526C93.987 52.0526 95.612 50.9885 95.612 48.5359V47.6358H110.879V48.6161C110.879 57.7742 102.189 64.2319 88.3841 64.2319C74.4965 64.2354 64.7529 58.2661 64.7529 42.8143ZM79.1257 37.9091H96.4228C95.8546 34.3924 93.4187 33.1679 87.7327 33.1679C82.1298 33.1644 79.7736 34.3924 79.1257 37.9091Z" fill="#644E3C"/>
<path d="M115.263 63.4188V22.2094H129.556V33.0037H130.367C131.503 26.218 135.727 21.3931 143.845 21.3931C152.858 21.3931 156.434 27.3624 156.434 35.6203V43.798H141.167V38.973C141.167 35.54 139.868 34.312 135.89 34.312C131.749 34.312 130.529 35.54 130.529 38.809V63.4188H115.263Z" fill="#644E3C"/>
<path d="M159.52 49.1079V48.7799H174.786V49.5963C174.786 51.8849 176.248 52.1292 181.772 52.1292C187.049 52.1292 187.863 51.557 187.863 50.1685C187.863 48.8602 187.212 48.5323 183.397 48.1241L171.54 46.8158C163.095 45.9157 158.546 41.9106 158.546 34.9609C158.546 27.6834 164.312 21.3896 179.658 21.3896C193.868 21.3896 201.422 26.5391 201.422 36.6774V37.0054H186.155V36.5134C186.155 34.3888 185.344 33.405 179.169 33.405C174.215 33.405 173.567 34.0609 173.567 35.6134C173.567 36.7577 174.218 37.3298 179.007 37.8217L187.129 38.7218C199.065 40.0301 202.884 44.0352 202.884 50.9848C202.884 58.6706 195.25 64.2317 181.688 64.2317C167.233 64.2352 159.52 58.5938 159.52 49.1079Z" fill="#644E3C"/>
<path d="M205.727 42.8141C205.727 29.4068 215.39 21.3931 229.032 21.3931C243.162 21.3931 252.175 28.5067 252.175 41.75C252.175 43.1385 252.095 44.2026 251.932 45.6749H219.857C220.099 50.6638 222.293 52.0523 228.789 52.0523C234.961 52.0523 236.586 50.9883 236.586 48.5357V47.6356H251.852V48.6159C251.852 57.7739 243.162 64.2316 229.358 64.2316C215.474 64.2351 205.727 58.2658 205.727 42.8141ZM220.099 37.9089H237.396C236.828 34.3922 234.392 33.1676 228.706 33.1676C223.107 33.1642 220.751 34.3922 220.099 37.9089Z" fill="#644E3C"/>
<path d="M267.522 12.434C267.438 12.4479 267.355 12.4619 267.272 12.4758C267.189 12.4898 267.106 12.5037 267.023 12.5177C266.939 12.5316 266.856 12.5456 266.773 12.5596C266.69 12.5735 266.607 12.5875 266.524 12.6014C266.441 12.6154 266.357 12.6293 266.274 12.6433C266.191 12.6572 266.108 12.6712 266.025 12.6852C265.942 12.6991 265.858 12.7131 265.775 12.727C265.692 12.741 265.609 12.7549 265.526 12.7689C265.443 12.7828 265.359 12.7968 265.28 12.8107C265.197 12.8247 265.113 12.8387 265.034 12.8526C264.951 12.8666 264.867 12.8805 264.788 12.8945C264.705 12.9084 264.621 12.9224 264.542 12.9363C264.459 12.9503 264.375 12.9643 264.296 12.9782C264.213 12.9922 264.129 13.0061 264.05 13.0201C263.967 13.034 263.883 13.048 263.804 13.0654C263.721 13.0794 263.637 13.0968 263.558 13.1108C263.475 13.1247 263.391 13.1422 263.312 13.1561C263.228 13.1701 263.145 13.1875 263.066 13.2015C262.982 13.2154 262.899 13.2329 262.82 13.2468C262.736 13.2643 262.653 13.2782 262.574 13.2957C262.49 13.3131 262.411 13.3271 262.328 13.3445C262.244 13.362 262.165 13.3759 262.082 13.3934C261.998 13.4108 261.919 13.4283 261.836 13.4457C261.752 13.4631 261.673 13.4806 261.59 13.498C261.506 13.5155 261.427 13.5329 261.347 13.5504C261.264 13.5678 261.184 13.5853 261.104 13.6062C261.021 13.6236 260.942 13.6446 260.862 13.662C260.779 13.6829 260.699 13.7004 260.619 13.7213C260.536 13.7423 260.457 13.7597 260.377 13.7806C260.294 13.8016 260.214 13.8225 260.134 13.8434C260.055 13.8643 259.971 13.8853 259.895 13.9097C259.815 13.9306 259.736 13.9551 259.656 13.976C259.576 14.0004 259.497 14.0213 259.417 14.0458C259.337 14.0702 259.258 14.0946 259.178 14.119C259.098 14.1435 259.019 14.1714 258.942 14.1958C258.863 14.2237 258.783 14.2481 258.707 14.276C258.627 14.3039 258.551 14.3318 258.475 14.3598C258.395 14.3877 258.319 14.4191 258.242 14.4505C258.163 14.4819 258.086 14.5133 258.014 14.5447C257.937 14.5795 257.861 14.611 257.785 14.6458C257.709 14.6807 257.633 14.7156 257.56 14.754C257.484 14.7924 257.411 14.8307 257.338 14.8691C257.265 14.9075 257.192 14.9494 257.12 14.9912C257.047 15.0331 256.974 15.0784 256.905 15.1203C256.832 15.1657 256.763 15.211 256.697 15.2599C256.628 15.3087 256.562 15.3575 256.496 15.4064C256.43 15.4587 256.364 15.5111 256.302 15.5634C256.24 15.6192 256.177 15.675 256.118 15.7308C256.059 15.7901 256.001 15.846 255.942 15.9088C255.886 15.9681 255.831 16.0309 255.775 16.0972C255.723 16.16 255.671 16.2262 255.619 16.2925C255.571 16.3588 255.522 16.4286 255.477 16.4984C255.432 16.5681 255.387 16.6379 255.346 16.7112C255.304 16.7844 255.266 16.8577 255.228 16.931C255.19 17.0042 255.155 17.081 255.12 17.1577C255.086 17.2345 255.055 17.3113 255.027 17.388C254.996 17.4648 254.968 17.5415 254.944 17.6218C254.916 17.6985 254.892 17.7787 254.871 17.859C254.847 17.9392 254.826 18.0195 254.805 18.0997C254.784 18.18 254.767 18.2602 254.75 18.3439C254.732 18.4242 254.715 18.5044 254.701 18.5881C254.687 18.6684 254.673 18.7521 254.66 18.8358C254.646 18.9161 254.635 18.9998 254.625 19.0835C254.615 19.1638 254.604 19.2475 254.597 19.3312C254.59 19.4115 254.58 19.4952 254.576 19.5789C254.57 19.6592 254.563 19.7429 254.559 19.8267C254.556 19.9069 254.549 19.9906 254.545 20.0744C254.542 20.1546 254.538 20.2383 254.535 20.3221C254.531 20.4023 254.531 20.486 254.528 20.5698C254.528 20.65 254.524 20.7337 254.524 20.8175C254.524 20.9012 254.524 20.9814 254.524 21.0652C254.524 21.1489 254.524 21.2291 254.528 21.3129C254.528 21.3966 254.531 21.4768 254.535 21.5606C254.538 21.6443 254.538 21.7245 254.542 21.8083C254.545 21.892 254.549 21.9722 254.552 22.0595C254.556 22.1432 254.559 22.2234 254.563 22.3107C254.566 22.3944 254.57 22.4746 254.576 22.5618C254.58 22.6456 254.587 22.7258 254.59 22.813C254.594 22.8968 254.601 22.9805 254.608 23.0642C254.615 23.148 254.618 23.2317 254.625 23.3154C254.632 23.3992 254.635 23.4829 254.642 23.5666C254.649 23.6503 254.656 23.7341 254.663 23.8178C254.67 23.898 254.677 23.9818 254.684 24.0655C254.691 24.1457 254.698 24.2295 254.705 24.3132C254.712 24.3969 254.718 24.4772 254.725 24.5609C254.732 24.6446 254.739 24.7249 254.75 24.8086C254.757 24.8923 254.764 24.9726 254.774 25.0563C254.781 25.14 254.791 25.2203 254.798 25.304C254.805 25.3877 254.816 25.468 254.822 25.5517C254.829 25.6355 254.84 25.7192 254.847 25.8029C254.854 25.8866 254.864 25.9704 254.871 26.0541C254.878 26.1378 254.888 26.2216 254.895 26.3053C254.902 26.389 254.913 26.4693 254.919 26.553C254.93 26.6367 254.937 26.717 254.947 26.8007C254.958 26.8844 254.965 26.9682 254.975 27.0519C254.985 27.1356 254.992 27.2193 255.003 27.3031C255.013 27.3868 255.02 27.4705 255.03 27.5543C255.041 27.638 255.048 27.7182 255.058 27.802C255.068 27.8857 255.075 27.9694 255.086 28.0532C255.096 28.1369 255.103 28.2206 255.114 28.3044C255.124 28.3881 255.131 28.4718 255.141 28.5555C255.152 28.6393 255.159 28.723 255.169 28.8102C255.155 28.7265 255.141 28.6428 255.127 28.559C255.113 28.4753 255.1 28.3916 255.086 28.3078C255.072 28.2241 255.058 28.1404 255.044 28.0567C255.03 27.9729 255.016 27.8892 255.003 27.8055C254.989 27.7217 254.975 27.638 254.961 27.5543C254.947 27.4705 254.933 27.3868 254.919 27.3031C254.906 27.2193 254.892 27.1356 254.878 27.0519C254.864 26.9682 254.85 26.8844 254.836 26.8007C254.822 26.717 254.809 26.6332 254.795 26.553C254.781 26.4693 254.767 26.3855 254.753 26.3053C254.739 26.2216 254.725 26.1378 254.712 26.0576C254.698 25.9739 254.684 25.8901 254.67 25.8099C254.656 25.7262 254.642 25.6424 254.628 25.5622C254.615 25.4785 254.601 25.3947 254.587 25.3145C254.573 25.2307 254.559 25.147 254.542 25.0668C254.528 24.983 254.511 24.8993 254.497 24.8191C254.483 24.7353 254.466 24.6516 254.452 24.5714C254.438 24.4876 254.421 24.4039 254.407 24.3237C254.393 24.2399 254.375 24.1562 254.362 24.076C254.344 23.9922 254.33 23.9085 254.313 23.8283C254.296 23.7445 254.282 23.6643 254.265 23.5806C254.247 23.4968 254.233 23.4166 254.216 23.3329C254.199 23.2491 254.181 23.1689 254.164 23.0852C254.147 23.0014 254.129 22.9212 254.112 22.8375C254.095 22.7537 254.077 22.6735 254.06 22.5932C254.043 22.5095 254.025 22.4293 254.005 22.349C253.987 22.2653 253.967 22.1851 253.949 22.1048C253.928 22.0211 253.911 21.9408 253.89 21.8606C253.87 21.7769 253.852 21.6966 253.831 21.6164C253.811 21.5327 253.79 21.4524 253.769 21.3722C253.748 21.2919 253.728 21.2082 253.703 21.1315C253.682 21.0512 253.658 20.971 253.637 20.8907C253.613 20.8105 253.592 20.7302 253.568 20.65C253.544 20.5698 253.52 20.4895 253.495 20.4093C253.471 20.329 253.443 20.2488 253.419 20.172C253.391 20.0918 253.367 20.0116 253.339 19.9348C253.312 19.8546 253.284 19.7778 253.256 19.7011C253.229 19.6208 253.197 19.5441 253.166 19.4673C253.135 19.3871 253.104 19.3103 253.073 19.2371C253.038 19.1603 253.007 19.0835 252.972 19.0068C252.937 18.93 252.903 18.8533 252.865 18.78C252.827 18.7033 252.788 18.63 252.75 18.5567C252.712 18.4835 252.671 18.4102 252.629 18.3369C252.588 18.2637 252.542 18.1904 252.501 18.1206C252.456 18.0474 252.411 17.9776 252.362 17.9113C252.314 17.8415 252.265 17.7753 252.217 17.709C252.165 17.6427 252.113 17.5764 252.061 17.5136C252.005 17.4508 251.95 17.388 251.895 17.3287C251.836 17.2694 251.78 17.2101 251.718 17.1508C251.659 17.0949 251.597 17.0391 251.531 16.9833C251.468 16.931 251.402 16.8786 251.337 16.8263C251.271 16.7775 251.202 16.7286 251.132 16.6833C251.063 16.6379 250.994 16.5926 250.921 16.5507C250.848 16.5088 250.775 16.4705 250.703 16.4321C250.63 16.3937 250.554 16.3588 250.477 16.3239C250.401 16.289 250.325 16.2577 250.249 16.2297C250.172 16.1983 250.096 16.1704 250.017 16.146C249.94 16.1181 249.861 16.0937 249.781 16.0727C249.701 16.0483 249.621 16.0274 249.542 16.0065C249.462 15.9855 249.382 15.9681 249.299 15.9506C249.22 15.9332 249.14 15.9158 249.057 15.9018C248.977 15.8878 248.894 15.8739 248.811 15.8599C248.731 15.846 248.648 15.8355 248.565 15.825C248.485 15.8146 248.402 15.8041 248.319 15.7971C248.239 15.7902 248.156 15.7797 248.073 15.7762C247.993 15.7692 247.91 15.7622 247.827 15.7588C247.747 15.7553 247.664 15.7483 247.581 15.7448C247.501 15.7413 247.418 15.7378 247.335 15.7343C247.255 15.7308 247.172 15.7308 247.089 15.7274C247.009 15.7274 246.926 15.7239 246.843 15.7239C246.759 15.7239 246.68 15.7239 246.597 15.7239C246.513 15.7239 246.434 15.7239 246.351 15.7274C246.267 15.7274 246.188 15.7308 246.105 15.7343C246.021 15.7378 245.942 15.7378 245.859 15.7413C245.775 15.7448 245.696 15.7483 245.609 15.7518C245.526 15.7553 245.446 15.7587 245.36 15.7622C245.276 15.7657 245.197 15.7692 245.11 15.7762C245.027 15.7797 244.947 15.7867 244.861 15.7902C244.777 15.7936 244.694 15.8006 244.611 15.8076C244.528 15.8146 244.445 15.8181 244.362 15.825C244.278 15.832 244.195 15.8355 244.112 15.8425C244.029 15.8495 243.946 15.8564 243.863 15.8634C243.783 15.8704 243.7 15.8774 243.617 15.8843C243.537 15.8913 243.454 15.8983 243.371 15.9053C243.288 15.9123 243.208 15.9192 243.125 15.9262C243.041 15.9332 242.962 15.9402 242.879 15.9506C242.795 15.9576 242.716 15.9646 242.633 15.9751C242.549 15.982 242.47 15.9925 242.387 15.9995C242.303 16.0065 242.224 16.0169 242.141 16.0239C242.057 16.0309 241.974 16.0413 241.891 16.0483C241.808 16.0553 241.725 16.0658 241.642 16.0727C241.558 16.0797 241.475 16.0902 241.392 16.0972C241.309 16.1041 241.229 16.1146 241.146 16.1251C241.063 16.1355 240.983 16.1425 240.9 16.153C240.817 16.1635 240.734 16.1704 240.651 16.1809C240.568 16.1914 240.484 16.1983 240.401 16.2088C240.318 16.2193 240.235 16.2262 240.152 16.2367C240.069 16.2472 239.989 16.2542 239.906 16.2646C239.823 16.2751 239.739 16.2821 239.656 16.2925C239.573 16.303 239.49 16.31 239.407 16.3204C239.324 16.3309 239.24 16.3379 239.157 16.3484C239.074 16.3588 238.991 16.3658 238.904 16.3763C238.987 16.3623 239.071 16.3484 239.154 16.3344C239.237 16.3204 239.32 16.3065 239.403 16.2925C239.486 16.2786 239.57 16.2646 239.653 16.2507C239.736 16.2367 239.819 16.2228 239.902 16.2088C239.985 16.1948 240.069 16.1809 240.152 16.1669C240.235 16.153 240.318 16.139 240.401 16.1251C240.484 16.1111 240.568 16.0972 240.651 16.0832C240.734 16.0693 240.817 16.0553 240.9 16.0413C240.983 16.0274 241.066 16.0134 241.146 15.9995C241.229 15.9855 241.312 15.9716 241.392 15.9576C241.475 15.9437 241.558 15.9297 241.638 15.9157C241.721 15.9018 241.805 15.8878 241.884 15.8739C241.967 15.8599 242.051 15.846 242.13 15.832C242.213 15.8181 242.297 15.8041 242.376 15.7902C242.459 15.7762 242.543 15.7622 242.622 15.7448C242.705 15.7308 242.789 15.7134 242.868 15.6994C242.951 15.6855 243.035 15.668 243.114 15.6541C243.197 15.6401 243.281 15.6227 243.36 15.6087C243.443 15.5948 243.527 15.5773 243.606 15.5634C243.689 15.5459 243.773 15.532 243.852 15.5145C243.935 15.4971 244.015 15.4831 244.098 15.4657C244.181 15.4483 244.261 15.4343 244.344 15.4169C244.427 15.3994 244.507 15.382 244.59 15.3645C244.674 15.3471 244.753 15.3296 244.836 15.3122C244.92 15.2948 244.999 15.2773 245.079 15.2599C245.162 15.2424 245.242 15.225 245.321 15.204C245.405 15.1866 245.484 15.1657 245.564 15.1482C245.647 15.1273 245.727 15.1098 245.807 15.0889C245.89 15.068 245.969 15.0505 246.049 15.0296C246.132 15.0087 246.212 14.9877 246.292 14.9668C246.371 14.9459 246.455 14.9249 246.531 14.9005C246.61 14.8796 246.69 14.8552 246.77 14.8342C246.85 14.8098 246.929 14.7889 247.009 14.7645C247.089 14.74 247.168 14.7156 247.248 14.6912C247.328 14.6668 247.407 14.6389 247.484 14.6144C247.563 14.5865 247.643 14.5621 247.719 14.5342C247.799 14.5063 247.875 14.4784 247.951 14.4505C248.031 14.4226 248.107 14.3912 248.184 14.3598C248.263 14.3284 248.339 14.297 248.412 14.2656C248.488 14.2307 248.565 14.1993 248.641 14.1644C248.717 14.1295 248.793 14.0946 248.866 14.0562C248.942 14.0179 249.015 13.9795 249.088 13.9411C249.161 13.9027 249.233 13.8609 249.306 13.819C249.379 13.7771 249.452 13.7318 249.521 13.6899C249.594 13.6446 249.663 13.5992 249.729 13.5504C249.798 13.5015 249.864 13.4527 249.93 13.4038C249.996 13.3515 250.062 13.2992 250.124 13.2468C250.186 13.191 250.249 13.1352 250.308 13.0794C250.366 13.0201 250.425 12.9643 250.484 12.9015C250.54 12.8421 250.595 12.7793 250.651 12.7131C250.703 12.6503 250.755 12.584 250.807 12.5177C250.855 12.4514 250.904 12.3816 250.949 12.3119C250.994 12.2421 251.039 12.1723 251.08 12.099C251.122 12.0258 251.16 11.9525 251.198 11.8793C251.236 11.806 251.271 11.7292 251.305 11.6525C251.34 11.5757 251.371 11.499 251.399 11.4222C251.43 11.3455 251.458 11.2687 251.482 11.1885C251.51 11.1117 251.534 11.0315 251.555 10.9512C251.579 10.871 251.6 10.7908 251.621 10.7105C251.642 10.6303 251.659 10.55 251.676 10.4663C251.694 10.3861 251.711 10.3058 251.725 10.2221C251.739 10.1418 251.752 10.0581 251.766 9.97438C251.78 9.89414 251.791 9.81041 251.801 9.72668C251.811 9.64644 251.822 9.56271 251.829 9.47898C251.836 9.39874 251.846 9.315 251.849 9.23127C251.856 9.15103 251.863 9.0673 251.867 8.98357C251.87 8.90333 251.877 8.8196 251.881 8.73587C251.884 8.65563 251.888 8.5719 251.891 8.48817C251.895 8.40793 251.895 8.32419 251.898 8.24046C251.898 8.16022 251.901 8.07649 251.901 7.99276C251.901 7.90903 251.901 7.82879 251.901 7.74506C251.901 7.66133 251.901 7.58109 251.898 7.49736C251.898 7.41363 251.895 7.33338 251.891 7.24965C251.888 7.16592 251.888 7.08568 251.884 7.00195C251.881 6.91822 251.877 6.83798 251.874 6.75076C251.87 6.66703 251.867 6.58679 251.863 6.49957C251.86 6.41584 251.856 6.3356 251.849 6.24838C251.846 6.16465 251.839 6.08441 251.836 5.99719C251.832 5.91346 251.825 5.82973 251.818 5.746C251.811 5.66227 251.808 5.57854 251.801 5.4948C251.794 5.41107 251.791 5.32734 251.784 5.24361C251.777 5.15988 251.77 5.07615 251.763 4.99242C251.756 4.91218 251.749 4.82845 251.742 4.74472C251.735 4.66448 251.728 4.58075 251.721 4.49702C251.714 4.41329 251.707 4.33304 251.7 4.24931C251.694 4.16558 251.687 4.08534 251.676 4.00161C251.669 3.91788 251.662 3.83765 251.652 3.75391C251.645 3.67018 251.635 3.58995 251.628 3.50622C251.621 3.42248 251.61 3.34224 251.603 3.25851C251.597 3.17477 251.586 3.09104 251.579 3.00731C251.572 2.92358 251.562 2.83985 251.555 2.75612C251.548 2.67239 251.538 2.58866 251.531 2.50493C251.524 2.4212 251.513 2.34096 251.503 2.25723C251.493 2.1735 251.486 2.09326 251.475 2.00953C251.465 1.9258 251.458 1.84207 251.448 1.75834C251.437 1.67461 251.43 1.59088 251.42 1.50715C251.409 1.42342 251.403 1.33969 251.392 1.25596C251.382 1.17223 251.375 1.09199 251.364 1.00826C251.354 0.924528 251.347 0.840797 251.337 0.757067C251.326 0.673336 251.319 0.589606 251.309 0.505875C251.299 0.422145 251.292 0.338414 251.281 0.254684C251.271 0.170953 251.264 0.0872191 251.254 0C251.267 0.0837304 251.281 0.167461 251.295 0.251191C251.309 0.334922 251.323 0.418653 251.337 0.502383C251.351 0.586113 251.364 0.669844 251.378 0.753575C251.392 0.837305 251.406 0.921036 251.42 1.00477C251.434 1.0885 251.448 1.17223 251.461 1.25596C251.475 1.33969 251.489 1.42342 251.503 1.50715C251.517 1.59088 251.531 1.67461 251.545 1.75834C251.558 1.84207 251.572 1.9258 251.586 2.00953C251.6 2.09326 251.614 2.17699 251.628 2.25723C251.642 2.34096 251.655 2.42469 251.669 2.50493C251.683 2.58866 251.697 2.6724 251.711 2.75264C251.725 2.83637 251.739 2.9201 251.752 3.00034C251.766 3.08407 251.78 3.1678 251.794 3.24804C251.808 3.33177 251.822 3.41551 251.836 3.49575C251.849 3.57948 251.863 3.66321 251.881 3.74345C251.895 3.82718 251.912 3.91091 251.926 3.99115C251.94 4.07488 251.957 4.15861 251.971 4.23885C251.985 4.32258 252.002 4.40632 252.016 4.48656C252.03 4.57029 252.047 4.65402 252.061 4.73426C252.078 4.81799 252.092 4.90171 252.109 4.98196C252.127 5.06569 252.141 5.14594 252.158 5.22967C252.175 5.3134 252.189 5.39364 252.206 5.47737C252.224 5.5611 252.241 5.64133 252.258 5.72506C252.276 5.80879 252.293 5.88903 252.31 5.97276C252.328 6.05649 252.345 6.13674 252.362 6.21698C252.38 6.30071 252.397 6.38096 252.418 6.4612C252.435 6.54493 252.456 6.62517 252.473 6.70541C252.494 6.78914 252.511 6.86938 252.532 6.94962C252.553 7.03336 252.57 7.11359 252.591 7.19383C252.612 7.27756 252.633 7.35781 252.653 7.43805C252.674 7.51829 252.695 7.60202 252.719 7.67878C252.74 7.75902 252.764 7.83926 252.785 7.9195C252.809 7.99974 252.83 8.07998 252.854 8.16023C252.879 8.24047 252.903 8.32071 252.927 8.40095C252.951 8.48119 252.979 8.56143 253.003 8.63819C253.031 8.71843 253.055 8.79867 253.083 8.87542C253.111 8.95566 253.138 9.03242 253.166 9.10917C253.194 9.18941 253.225 9.26616 253.256 9.34291C253.287 9.42315 253.319 9.49991 253.35 9.57317C253.384 9.64993 253.416 9.72668 253.45 9.80343C253.485 9.88019 253.52 9.95694 253.558 10.0302C253.596 10.107 253.634 10.1802 253.672 10.2535C253.71 10.3267 253.752 10.4 253.793 10.4733C253.835 10.5465 253.88 10.6198 253.922 10.6896C253.967 10.7628 254.012 10.8326 254.06 10.8989C254.109 10.9687 254.157 11.035 254.206 11.1013C254.258 11.1675 254.31 11.2338 254.362 11.2966C254.417 11.3594 254.472 11.4222 254.528 11.4815C254.587 11.5408 254.642 11.6001 254.705 11.6595C254.764 11.7153 254.826 11.7711 254.892 11.8269C254.954 11.8792 255.02 11.9316 255.086 11.9839C255.152 12.0328 255.221 12.0816 255.29 12.127C255.36 12.1723 255.429 12.2177 255.502 12.2595C255.574 12.3014 255.647 12.3398 255.72 12.3781C255.793 12.4165 255.869 12.4514 255.945 12.4863C256.021 12.5212 256.098 12.5526 256.174 12.5805C256.25 12.6119 256.326 12.6398 256.406 12.6642C256.482 12.6921 256.562 12.7166 256.642 12.7375C256.721 12.7619 256.801 12.7828 256.881 12.8038C256.96 12.8247 257.04 12.8421 257.123 12.8596C257.203 12.877 257.283 12.8945 257.366 12.9084C257.445 12.9224 257.529 12.9363 257.612 12.9503C257.691 12.9642 257.775 12.9747 257.858 12.9852C257.937 12.9957 258.021 13.0061 258.104 13.0131C258.183 13.0201 258.267 13.0305 258.35 13.034C258.429 13.041 258.513 13.048 258.596 13.0515C258.676 13.055 258.759 13.0619 258.842 13.0654C258.922 13.0689 259.005 13.0724 259.088 13.0759C259.168 13.0794 259.251 13.0794 259.334 13.0829C259.414 13.0829 259.497 13.0864 259.58 13.0864C259.663 13.0864 259.743 13.0864 259.826 13.0864C259.909 13.0864 259.989 13.0864 260.072 13.0829C260.155 13.0829 260.235 13.0794 260.318 13.0759C260.401 13.0724 260.481 13.0724 260.564 13.0689C260.647 13.0654 260.727 13.0619 260.813 13.0584C260.897 13.055 260.976 13.0515 261.063 13.048C261.146 13.0445 261.226 13.041 261.312 13.034C261.396 13.0305 261.475 13.0236 261.562 13.0201C261.645 13.0166 261.728 13.0096 261.811 13.0026C261.894 12.9957 261.978 12.9922 262.061 12.9852C262.144 12.9782 262.227 12.9747 262.31 12.9677C262.393 12.9608 262.477 12.9538 262.56 12.9468C262.639 12.9398 262.723 12.9329 262.806 12.9259C262.885 12.9189 262.969 12.9119 263.052 12.9049C263.135 12.898 263.215 12.891 263.298 12.884C263.381 12.877 263.461 12.8701 263.544 12.8596C263.627 12.8526 263.707 12.8456 263.79 12.8352C263.873 12.8282 263.953 12.8177 264.036 12.8107C264.119 12.8038 264.199 12.7933 264.282 12.7863C264.365 12.7793 264.448 12.7689 264.531 12.7619C264.614 12.7549 264.698 12.7445 264.781 12.7375C264.864 12.7305 264.947 12.72 265.03 12.7131C265.113 12.7061 265.193 12.6956 265.276 12.6852C265.359 12.6747 265.439 12.6677 265.522 12.6572C265.605 12.6468 265.689 12.6398 265.772 12.6293C265.855 12.6189 265.938 12.6119 266.021 12.6014C266.104 12.591 266.188 12.584 266.271 12.5735C266.354 12.563 266.434 12.5561 266.517 12.5456C266.6 12.5351 266.683 12.5282 266.766 12.5177C266.849 12.5072 266.933 12.5003 267.016 12.4898C267.099 12.4793 267.182 12.4723 267.265 12.4619C267.348 12.4514 267.435 12.4409 267.522 12.434Z" fill="#644E3C"/>
<path d="M270 26.4761C269.917 26.4622 269.837 26.4517 269.754 26.4377C269.671 26.4238 269.591 26.4133 269.508 26.3994C269.425 26.3854 269.345 26.375 269.265 26.361C269.182 26.347 269.102 26.3366 269.019 26.3226C268.936 26.3087 268.856 26.2982 268.773 26.2842C268.69 26.2703 268.607 26.2598 268.527 26.2494C268.444 26.2389 268.361 26.2249 268.281 26.2145C268.198 26.204 268.115 26.1901 268.035 26.1796C267.952 26.1691 267.869 26.1587 267.789 26.1482C267.706 26.1377 267.623 26.1272 267.543 26.1203C267.46 26.1098 267.377 26.1028 267.297 26.0924C267.214 26.0854 267.131 26.0749 267.051 26.0714C266.968 26.0645 266.885 26.0575 266.805 26.054C266.722 26.0505 266.639 26.0435 266.559 26.0435C266.476 26.04 266.393 26.04 266.313 26.04C266.226 26.04 266.147 26.04 266.067 26.0435C265.98 26.047 265.901 26.054 265.821 26.061C265.734 26.0679 265.655 26.0784 265.575 26.0924C265.492 26.1063 265.409 26.1238 265.332 26.1412C265.249 26.1621 265.173 26.1866 265.097 26.2145C265.017 26.2424 264.944 26.2773 264.872 26.3156C264.799 26.354 264.726 26.3959 264.66 26.4447C264.594 26.4936 264.529 26.5424 264.47 26.6017C264.411 26.6575 264.355 26.7169 264.3 26.7797C264.248 26.8425 264.199 26.9052 264.151 26.975C264.106 27.0413 264.061 27.1111 264.019 27.1844C263.981 27.2541 263.943 27.3274 263.905 27.4041C263.87 27.4774 263.836 27.5507 263.804 27.6309C263.773 27.7042 263.742 27.7809 263.714 27.8612C263.687 27.9379 263.659 28.0147 263.631 28.0949C263.607 28.1717 263.579 28.2484 263.555 28.3322C263.531 28.4089 263.506 28.4892 263.486 28.5694C263.465 28.6462 263.441 28.7264 263.42 28.8066C263.399 28.8834 263.378 28.9636 263.357 29.0474C263.337 29.1276 263.316 29.2078 263.299 29.2881C263.278 29.3683 263.26 29.4486 263.24 29.5288C263.222 29.6091 263.202 29.6893 263.184 29.7695C263.167 29.8498 263.15 29.93 263.129 30.0137C263.111 30.094 263.094 30.1742 263.077 30.2545C263.059 30.3347 263.042 30.415 263.025 30.4987C263.007 30.5789 262.99 30.6592 262.973 30.7429C262.955 30.8231 262.938 30.9034 262.921 30.9871C262.904 31.0674 262.886 31.1511 262.869 31.2313C262.852 31.3116 262.834 31.3953 262.817 31.4755C262.831 31.3918 262.841 31.3116 262.855 31.2278C262.869 31.1441 262.879 31.0639 262.893 30.9801C262.907 30.8964 262.917 30.8162 262.931 30.7359C262.945 30.6522 262.955 30.572 262.969 30.4882C262.983 30.4045 262.994 30.3242 263.007 30.2405C263.021 30.1568 263.032 30.0731 263.042 29.9928C263.053 29.9091 263.066 29.8254 263.077 29.7451C263.087 29.6614 263.101 29.5777 263.111 29.4974C263.122 29.4137 263.132 29.3299 263.143 29.2497C263.153 29.166 263.163 29.0822 263.17 29.002C263.181 28.9183 263.188 28.8345 263.198 28.7543C263.205 28.6706 263.215 28.5868 263.219 28.5066C263.226 28.4229 263.233 28.3391 263.236 28.2589C263.24 28.1752 263.247 28.0914 263.247 28.0112C263.25 27.9275 263.25 27.8437 263.25 27.7635C263.25 27.6763 263.25 27.596 263.247 27.5158C263.243 27.4286 263.236 27.3483 263.229 27.2681C263.222 27.1809 263.212 27.1006 263.198 27.0204C263.184 26.9366 263.167 26.8529 263.15 26.7762C263.129 26.6924 263.104 26.6157 263.077 26.5389C263.049 26.4587 263.014 26.3854 262.976 26.3122C262.938 26.2389 262.897 26.1656 262.848 26.0993C262.8 26.0331 262.751 25.9668 262.692 25.9075C262.637 25.8482 262.578 25.7923 262.515 25.7365C262.453 25.6842 262.391 25.6353 262.321 25.5865C262.256 25.5411 262.186 25.4958 262.114 25.4539C262.044 25.4155 261.971 25.3772 261.895 25.3388C261.822 25.3039 261.75 25.269 261.67 25.2376C261.597 25.2062 261.521 25.1748 261.441 25.1469C261.365 25.119 261.289 25.0911 261.209 25.0632C261.133 25.0388 261.057 25.0108 260.974 24.9864C260.897 24.962 260.818 24.9376 260.738 24.9166C260.662 24.8957 260.582 24.8713 260.502 24.8504C260.426 24.8294 260.346 24.8085 260.263 24.7876C260.184 24.7666 260.104 24.7457 260.024 24.7283C259.944 24.7073 259.865 24.6899 259.785 24.6689C259.705 24.6515 259.626 24.6306 259.546 24.6131C259.466 24.5957 259.387 24.5782 259.303 24.5573C259.224 24.5399 259.144 24.5224 259.064 24.505C258.985 24.4875 258.905 24.4701 258.822 24.4526C258.742 24.4352 258.662 24.4177 258.579 24.4003C258.5 24.3829 258.42 24.3654 258.337 24.348C258.257 24.3305 258.174 24.3131 258.094 24.2956C258.014 24.2782 257.931 24.2608 257.852 24.2433C257.935 24.2573 258.014 24.2677 258.098 24.2817C258.181 24.2956 258.26 24.3061 258.344 24.3201C258.427 24.334 258.506 24.3445 258.586 24.3584C258.669 24.3724 258.749 24.3829 258.832 24.3968C258.915 24.4108 258.995 24.4212 259.078 24.4352C259.161 24.4492 259.244 24.4596 259.324 24.4701C259.407 24.4806 259.491 24.4945 259.57 24.505C259.653 24.5154 259.737 24.5294 259.816 24.5399C259.899 24.5503 259.983 24.5608 260.062 24.5713C260.145 24.5817 260.229 24.5922 260.308 24.5992C260.391 24.6096 260.475 24.6166 260.554 24.6271C260.637 24.6341 260.721 24.6445 260.8 24.648C260.883 24.655 260.967 24.662 261.046 24.6655C261.129 24.6689 261.213 24.6759 261.292 24.6759C261.375 24.6794 261.459 24.6794 261.538 24.6794C261.625 24.6794 261.705 24.6794 261.784 24.6759C261.871 24.6724 261.951 24.6654 262.03 24.6585C262.117 24.6515 262.197 24.641 262.276 24.6271C262.36 24.6131 262.443 24.5957 262.519 24.5782C262.602 24.5573 262.678 24.5329 262.755 24.505C262.834 24.4771 262.907 24.4422 262.98 24.4038C263.053 24.3654 263.125 24.3236 263.191 24.2747C263.257 24.2259 263.323 24.177 263.382 24.1177C263.441 24.0619 263.496 24.0026 263.551 23.9398C263.603 23.877 263.652 23.8142 263.7 23.7444C263.746 23.6781 263.791 23.6084 263.832 23.5351C263.87 23.4653 263.908 23.3921 263.946 23.3153C263.981 23.242 264.016 23.1688 264.047 23.0885C264.078 23.0153 264.109 22.9385 264.137 22.8583C264.165 22.7815 264.192 22.7048 264.22 22.6245C264.244 22.5478 264.272 22.471 264.296 22.3873C264.321 22.3105 264.345 22.2303 264.366 22.1501C264.387 22.0733 264.411 21.993 264.432 21.9128C264.452 21.8361 264.473 21.7558 264.494 21.6721C264.515 21.5918 264.536 21.5116 264.553 21.4314C264.574 21.3511 264.591 21.2709 264.612 21.1906C264.629 21.1104 264.65 21.0302 264.667 20.9499C264.685 20.8697 264.702 20.7894 264.723 20.7057C264.74 20.6255 264.757 20.5452 264.775 20.465C264.792 20.3847 264.809 20.3045 264.827 20.2207C264.844 20.1405 264.861 20.0603 264.879 19.9765C264.896 19.8963 264.913 19.8161 264.931 19.7323C264.948 19.6521 264.965 19.5684 264.983 19.4881C265 19.4079 265.017 19.3241 265.034 19.2439C265.021 19.3276 265.01 19.4079 264.996 19.4916C264.983 19.5753 264.972 19.6556 264.958 19.7393C264.944 19.823 264.934 19.9033 264.92 19.9835C264.906 20.0672 264.896 20.1475 264.882 20.2312C264.868 20.315 264.858 20.3952 264.844 20.4789C264.83 20.5627 264.82 20.6464 264.809 20.7266C264.799 20.8104 264.785 20.8941 264.775 20.9743C264.764 21.0581 264.75 21.1418 264.74 21.222C264.73 21.3058 264.719 21.3895 264.709 21.4697C264.698 21.5535 264.688 21.6372 264.681 21.7174C264.671 21.8012 264.664 21.8849 264.653 21.9651C264.646 22.0489 264.636 22.1326 264.633 22.2128C264.626 22.2966 264.619 22.3803 264.615 22.4605C264.612 22.5443 264.605 22.628 264.605 22.7082C264.601 22.792 264.601 22.8757 264.601 22.956C264.601 23.0432 264.601 23.1234 264.605 23.2037C264.608 23.2909 264.615 23.3711 264.622 23.4514C264.629 23.5386 264.639 23.6188 264.653 23.6991C264.667 23.7828 264.685 23.8665 264.702 23.9433C264.723 24.027 264.747 24.1038 264.775 24.1805C264.802 24.2608 264.837 24.334 264.875 24.4073C264.913 24.4805 264.955 24.5538 265.003 24.6201C265.052 24.6864 265.1 24.7527 265.159 24.812C265.215 24.8713 265.274 24.9271 265.336 24.9829C265.398 25.0353 265.461 25.0841 265.53 25.133C265.596 25.1783 265.665 25.2237 265.738 25.2655C265.807 25.3039 265.88 25.3423 265.956 25.3807C266.029 25.4155 266.102 25.4504 266.181 25.4818C266.254 25.5132 266.33 25.5446 266.41 25.5725C266.486 25.6005 266.563 25.6284 266.642 25.6563C266.718 25.6807 266.795 25.7086 266.878 25.733C266.954 25.7574 267.034 25.7819 267.113 25.8028C267.19 25.8237 267.269 25.8481 267.349 25.8691C267.425 25.89 267.505 25.911 267.588 25.9319C267.668 25.9528 267.748 25.9737 267.827 25.9912C267.907 26.0121 267.987 26.0296 268.066 26.0505C268.146 26.0679 268.226 26.0889 268.305 26.1063C268.385 26.1238 268.465 26.1412 268.548 26.1621C268.628 26.1796 268.707 26.197 268.787 26.2145C268.867 26.2319 268.946 26.2494 269.03 26.2668C269.109 26.2842 269.189 26.3017 269.272 26.3191C269.352 26.3366 269.432 26.354 269.515 26.3715C269.594 26.3889 269.678 26.4064 269.757 26.4238C269.837 26.4412 269.917 26.4587 270 26.4761Z" fill="#644E3C"/>
<path d="M3.3125 78.5778C3.39566 78.5604 3.47535 78.5395 3.55851 78.522C3.64167 78.5046 3.72137 78.4836 3.80453 78.4662C3.88769 78.4488 3.96738 78.4278 4.05054 78.4104C4.1337 78.3929 4.21339 78.372 4.29655 78.3546C4.37971 78.3371 4.45941 78.3162 4.54257 78.2987C4.62573 78.2813 4.70542 78.2604 4.78858 78.2429C4.87174 78.2255 4.95143 78.2045 5.03459 78.1871C5.11775 78.1697 5.19745 78.1487 5.28061 78.1313C5.36377 78.1138 5.44346 78.0929 5.52662 78.0755C5.60978 78.058 5.68948 78.0371 5.77263 78.0196C5.85579 78.0022 5.93549 77.9813 6.01865 77.9638C6.10181 77.9429 6.1815 77.9254 6.26466 77.908C6.34782 77.8871 6.42751 77.8696 6.50721 77.8487C6.59037 77.8277 6.67006 77.8103 6.74976 77.7894C6.83292 77.7684 6.91261 77.751 6.99231 77.7301C7.07547 77.7091 7.15516 77.6917 7.23486 77.6708C7.31802 77.6498 7.39771 77.6324 7.4774 77.6114C7.56056 77.5905 7.64026 77.5696 7.71995 77.5521C7.80311 77.5312 7.8828 77.5103 7.9625 77.4893C8.04566 77.4684 8.12536 77.4475 8.20505 77.4265C8.28821 77.4056 8.3679 77.3847 8.4476 77.3638C8.52729 77.3428 8.61045 77.3219 8.69015 77.3009C8.76984 77.28 8.853 77.2556 8.93269 77.2347C9.01239 77.2137 9.09555 77.1893 9.17524 77.1684C9.25494 77.1474 9.3381 77.123 9.41433 77.1021C9.49402 77.0777 9.57372 77.0567 9.65341 77.0323C9.7331 77.0079 9.8128 76.9835 9.89249 76.9625C9.97219 76.9381 10.0519 76.9137 10.1316 76.8893C10.2113 76.8648 10.291 76.8404 10.3707 76.816C10.4504 76.7916 10.5301 76.7637 10.6063 76.7392C10.686 76.7113 10.7657 76.6869 10.8419 76.659C10.9216 76.6311 11.0013 76.6032 11.0775 76.5788C11.1572 76.5509 11.2334 76.5229 11.3131 76.495C11.3928 76.4671 11.4691 76.4357 11.5453 76.4078C11.625 76.3764 11.7012 76.3485 11.7774 76.3171C11.8571 76.2857 11.9334 76.2543 12.0061 76.2229C12.0824 76.1915 12.1586 76.1566 12.2348 76.1252C12.311 76.0903 12.3873 76.0554 12.46 76.0206C12.5363 75.9857 12.6125 75.9473 12.6853 75.9124C12.7615 75.874 12.8343 75.8356 12.907 75.7973C12.9798 75.7589 13.0526 75.717 13.1253 75.6752C13.1981 75.6333 13.2708 75.5914 13.3401 75.5461C13.4129 75.5007 13.4822 75.4554 13.5515 75.41C13.6208 75.3647 13.6901 75.3158 13.7559 75.267C13.8252 75.2182 13.8911 75.1658 13.9535 75.117C14.0193 75.0646 14.0817 75.0123 14.144 74.9565C14.2064 74.9007 14.2688 74.8449 14.3277 74.789C14.3866 74.7297 14.4455 74.6704 14.5009 74.6111C14.5564 74.5483 14.6118 74.489 14.6672 74.4227C14.7192 74.3599 14.7712 74.2936 14.8197 74.2273C14.8682 74.161 14.9167 74.0913 14.9618 74.0215C15.0068 73.9517 15.0518 73.882 15.0934 73.8087C15.135 73.7354 15.1731 73.6622 15.2112 73.5889C15.2494 73.5156 15.284 73.4389 15.3152 73.3621C15.3464 73.2854 15.3776 73.2086 15.4087 73.1319C15.4365 73.0551 15.4642 72.9749 15.4884 72.8946C15.5127 72.8179 15.5369 72.7376 15.5577 72.6539C15.5785 72.5737 15.5993 72.4934 15.6166 72.4097C15.634 72.3294 15.6513 72.2492 15.6652 72.1655C15.679 72.0852 15.6929 72.0015 15.7067 71.9178C15.7206 71.8375 15.731 71.7538 15.7414 71.6701C15.7518 71.5898 15.7587 71.5061 15.7656 71.4224C15.7726 71.3421 15.7795 71.2584 15.7864 71.1746C15.7934 71.0944 15.7968 71.0107 15.8003 70.927C15.8038 70.8467 15.8072 70.763 15.8072 70.6792C15.8072 70.599 15.8107 70.5153 15.8107 70.4316C15.8107 70.3513 15.8107 70.2676 15.8107 70.1838C15.8107 70.1036 15.8072 70.0199 15.8037 69.9361C15.8003 69.8559 15.7968 69.7722 15.7934 69.6884C15.7899 69.6082 15.7864 69.5245 15.7795 69.4407C15.776 69.3605 15.7691 69.2767 15.7656 69.193C15.7587 69.1128 15.7552 69.0291 15.7483 68.9453C15.7414 68.8651 15.7344 68.7813 15.7275 68.6976C15.7206 68.6174 15.7137 68.5336 15.7033 68.4499C15.6963 68.3697 15.6859 68.2859 15.679 68.2022C15.6721 68.1185 15.6617 68.0382 15.6513 67.9545C15.6409 67.8708 15.634 67.7905 15.6236 67.7068C15.6132 67.6231 15.6028 67.5428 15.5924 67.4591C15.582 67.3754 15.5716 67.2951 15.5612 67.2114C15.5508 67.1277 15.5404 67.0474 15.53 66.9637C15.5196 66.88 15.5092 66.7997 15.4954 66.716C15.485 66.6323 15.4711 66.552 15.4607 66.4683C15.4503 66.388 15.4365 66.3043 15.4261 66.2241C15.4157 66.1438 15.4018 66.0601 15.3914 65.9764C15.381 65.8961 15.3672 65.8124 15.3533 65.7287C15.3394 65.6484 15.329 65.5647 15.3152 65.481C15.3013 65.4007 15.2909 65.317 15.2771 65.2333C15.2632 65.153 15.2528 65.0693 15.239 64.9856C15.2251 64.9053 15.2112 64.8216 15.2008 64.7379C15.187 64.6576 15.1731 64.5739 15.1593 64.4902C15.1454 64.4064 15.1315 64.3262 15.1177 64.2424C15.1038 64.1587 15.09 64.0785 15.0761 63.9948C15.0622 63.9145 15.0484 63.8308 15.0345 63.747C15.0207 63.6668 15.0068 63.5831 14.9929 63.4993C14.9791 63.4191 14.9652 63.3354 14.9514 63.2516C14.9375 63.1679 14.9236 63.0877 14.9098 63.0039C14.8959 62.9202 14.8821 62.84 14.8682 62.7562C14.8543 62.676 14.8405 62.5923 14.8266 62.5085C14.8128 62.4248 14.7989 62.3445 14.785 62.2608C14.7712 62.1771 14.7573 62.0934 14.7435 62.0096C14.7296 61.9259 14.7157 61.8422 14.7019 61.7619C14.688 61.6782 14.6742 61.5945 14.6568 61.5107C14.6742 61.5945 14.695 61.6747 14.7123 61.7584C14.7296 61.8422 14.7504 61.9224 14.7677 62.0061C14.785 62.0899 14.8058 62.1701 14.8232 62.2539C14.8405 62.3376 14.8613 62.4178 14.8786 62.5015C14.8959 62.5853 14.9167 62.6655 14.934 62.7493C14.9514 62.833 14.9722 62.9132 14.9895 62.9969C15.0068 63.0807 15.0276 63.1609 15.0449 63.2447C15.0622 63.3284 15.083 63.4086 15.1004 63.4924C15.1177 63.5761 15.1385 63.6563 15.1558 63.7401C15.1731 63.8238 15.1939 63.904 15.2112 63.9878C15.2286 64.0715 15.2494 64.1517 15.2667 64.2355C15.2875 64.3192 15.3048 64.3994 15.3221 64.4832C15.3429 64.5669 15.3602 64.6471 15.381 64.7274C15.4018 64.8111 15.4191 64.8914 15.4399 64.9716C15.4607 65.0553 15.478 65.1356 15.4988 65.2158C15.5196 65.2996 15.5369 65.3798 15.5577 65.46C15.5785 65.5438 15.5959 65.624 15.6166 65.7042C15.6374 65.788 15.6582 65.8682 15.6755 65.9485C15.6963 66.0322 15.7171 66.1124 15.7379 66.1927C15.7587 66.2764 15.7795 66.3567 15.8003 66.4369C15.8211 66.5206 15.8419 66.6009 15.8627 66.6811C15.8834 66.7614 15.9042 66.8451 15.925 66.9253C15.9458 67.0056 15.9701 67.0893 15.9909 67.1695C16.0117 67.2498 16.0359 67.3335 16.0567 67.4137C16.0775 67.494 16.1017 67.5777 16.1225 67.6545C16.1468 67.7347 16.1676 67.815 16.1918 67.8952C16.2161 67.9754 16.2403 68.0557 16.2611 68.1359C16.2854 68.2162 16.3096 68.2964 16.3339 68.3767C16.3581 68.4569 16.3824 68.5371 16.4067 68.6174C16.4309 68.6976 16.4586 68.7779 16.4829 68.8546C16.5106 68.9349 16.5349 69.0151 16.5626 69.0919C16.5903 69.1721 16.618 69.2523 16.6423 69.3291C16.67 69.4093 16.6977 69.4861 16.7254 69.5663C16.7532 69.6466 16.7843 69.7233 16.8121 69.8001C16.8432 69.8803 16.871 69.9571 16.9021 70.0338C16.9333 70.1106 16.9645 70.1908 16.9957 70.2641C17.0269 70.3408 17.0615 70.4176 17.0927 70.4943C17.1274 70.5711 17.162 70.6478 17.1967 70.7211C17.2313 70.7979 17.2694 70.8746 17.3041 70.9479C17.3422 71.0246 17.3803 71.0979 17.4184 71.1712C17.4565 71.2444 17.4981 71.3177 17.5397 71.391C17.5813 71.4642 17.6229 71.5375 17.6679 71.6073C17.713 71.6805 17.758 71.7503 17.803 71.8201C17.8481 71.8899 17.8966 71.9596 17.9451 72.0259C17.9936 72.0957 18.0456 72.162 18.0941 72.2248C18.1461 72.2911 18.1981 72.3538 18.2535 72.4166C18.3089 72.4794 18.3644 72.5423 18.4198 72.6016C18.4787 72.6609 18.5376 72.7202 18.5965 72.776C18.6589 72.8318 18.7178 72.8876 18.7836 72.9435C18.846 72.9958 18.9118 73.0481 18.9777 73.097C19.0435 73.1458 19.1128 73.1947 19.1821 73.24C19.2514 73.2854 19.3207 73.3307 19.3935 73.3726C19.4662 73.4145 19.539 73.4528 19.6118 73.4912C19.6845 73.5296 19.7608 73.5645 19.837 73.5959C19.9132 73.6273 19.9894 73.6587 20.0657 73.6901C20.1419 73.718 20.2216 73.7459 20.3013 73.7703C20.3775 73.7947 20.4572 73.8191 20.5404 73.8401C20.6201 73.861 20.6998 73.8819 20.7829 73.8994C20.8626 73.9168 20.9423 73.9343 21.0255 73.9482C21.1052 73.9622 21.1883 73.9761 21.2715 73.9901C21.3512 74.004 21.4343 74.0145 21.5175 74.025C21.5972 74.0355 21.6804 74.0424 21.7635 74.0494C21.8432 74.0564 21.9264 74.0634 22.0095 74.0703C22.0892 74.0773 22.1724 74.0808 22.2555 74.0843C22.3352 74.0878 22.4184 74.0913 22.5016 74.0913C22.5812 74.0913 22.6644 74.0948 22.7476 74.0948C22.8273 74.0948 22.9104 74.0948 22.9936 74.0948C23.0733 74.0948 23.1564 74.0913 23.2396 74.0878C23.3193 74.0843 23.4024 74.0808 23.4856 74.0773C23.5653 74.0738 23.6485 74.0703 23.7316 74.0634C23.8113 74.0599 23.8945 74.0529 23.9776 74.0494C24.0573 74.0424 24.1405 74.0389 24.2236 74.032C24.3033 74.025 24.3865 74.018 24.4697 74.011C24.5494 74.004 24.6325 73.9971 24.7157 73.9866C24.7954 73.9796 24.8785 73.9692 24.9617 73.9622C25.0449 73.9552 25.1245 73.9447 25.2077 73.9343C25.2909 73.9238 25.3706 73.9168 25.4537 73.9064C25.5369 73.8959 25.6166 73.8854 25.6997 73.875C25.7829 73.8645 25.8626 73.854 25.9457 73.8436C26.0289 73.8331 26.1086 73.8226 26.1918 73.8122C26.2749 73.8017 26.3546 73.7912 26.4378 73.7773C26.5209 73.7668 26.6006 73.7529 26.6838 73.7424C26.7635 73.7319 26.8466 73.718 26.9263 73.7075C27.006 73.697 27.0892 73.6831 27.1723 73.6726C27.252 73.6622 27.3352 73.6482 27.4184 73.6342C27.4981 73.6203 27.5812 73.6098 27.6644 73.5959C27.7441 73.5819 27.8272 73.5714 27.9104 73.5575C27.9901 73.5435 28.0732 73.5331 28.1564 73.5191C28.2361 73.5052 28.3193 73.4912 28.4024 73.4807C28.4821 73.4668 28.5653 73.4528 28.6484 73.4389C28.7316 73.4249 28.8113 73.411 28.8944 73.397C28.9776 73.3831 29.0573 73.3691 29.1405 73.3551C29.2201 73.3412 29.3033 73.3272 29.3865 73.3133C29.4662 73.2993 29.5493 73.2854 29.6325 73.2714C29.7122 73.2574 29.7953 73.2435 29.8785 73.2295C29.9617 73.2156 30.0413 73.2016 30.1245 73.1877C30.2077 73.1737 30.2874 73.1598 30.3705 73.1458C30.4502 73.1319 30.5334 73.1179 30.6165 73.1039C30.6997 73.09 30.7794 73.076 30.8626 73.0621C30.9457 73.0481 31.0289 73.0342 31.112 73.0202C31.1952 73.0063 31.2783 72.9923 31.358 72.9784C31.4412 72.9644 31.5244 72.9504 31.6075 72.933C31.5244 72.9504 31.4447 72.9714 31.3615 72.9888C31.2783 73.0063 31.1987 73.0272 31.1155 73.0446C31.0323 73.0621 30.9526 73.083 30.8695 73.1005C30.7863 73.1179 30.7066 73.1388 30.6235 73.1563C30.5403 73.1737 30.4606 73.1947 30.3775 73.2121C30.2943 73.2295 30.2146 73.2505 30.1314 73.2679C30.0483 73.2854 29.9686 73.3063 29.8854 73.3237C29.8023 73.3412 29.7226 73.3621 29.6394 73.3796C29.5563 73.397 29.4766 73.4179 29.3934 73.4354C29.3102 73.4528 29.2305 73.4738 29.1474 73.4912C29.0642 73.5086 28.9845 73.5296 28.9014 73.547C28.8182 73.568 28.7385 73.5854 28.6554 73.6028C28.5722 73.6238 28.4925 73.6412 28.4128 73.6621C28.3296 73.6831 28.25 73.7005 28.1703 73.7215C28.0871 73.7424 28.0074 73.7598 27.9277 73.7808C27.8446 73.8017 27.7649 73.8191 27.6852 73.8401C27.602 73.861 27.5223 73.8784 27.4426 73.8994C27.3595 73.9203 27.2798 73.9413 27.2001 73.9587C27.1169 73.9796 27.0372 74.0006 26.9575 74.0215C26.8744 74.0424 26.7947 74.0634 26.715 74.0843C26.6318 74.1052 26.5521 74.1262 26.4724 74.1471C26.3927 74.168 26.3096 74.189 26.2299 74.2099C26.1502 74.2308 26.067 74.2552 25.9873 74.2762C25.9076 74.2971 25.8245 74.3215 25.7448 74.3425C25.6651 74.3634 25.5819 74.3878 25.5057 74.4087C25.426 74.4332 25.3463 74.4541 25.2666 74.4785C25.1869 74.5029 25.1072 74.5274 25.0275 74.5483C24.9478 74.5727 24.8681 74.5971 24.7884 74.6216C24.7087 74.646 24.6291 74.6704 24.5494 74.6948C24.4697 74.7192 24.39 74.7471 24.3137 74.7716C24.234 74.7995 24.1544 74.8239 24.0781 74.8518C23.9984 74.8797 23.9187 74.9076 23.8425 74.9321C23.7628 74.96 23.6866 74.9879 23.6069 75.0158C23.5272 75.0437 23.451 75.0751 23.3747 75.103C23.295 75.1344 23.2188 75.1623 23.1426 75.1937C23.0663 75.2251 22.9867 75.2565 22.9139 75.2879C22.8377 75.3193 22.7614 75.3542 22.6852 75.3856C22.609 75.4205 22.5327 75.4554 22.46 75.4903C22.3837 75.5252 22.3075 75.5635 22.2347 75.5984C22.1585 75.6368 22.0858 75.6752 22.013 75.7135C21.9402 75.7519 21.8675 75.7938 21.7947 75.8357C21.7219 75.8775 21.6492 75.9194 21.5799 75.9647C21.5071 76.0101 21.4378 76.0555 21.3685 76.1008C21.2992 76.1462 21.2299 76.195 21.1641 76.2438C21.0948 76.2927 21.0289 76.345 20.9666 76.3939C20.9007 76.4462 20.8384 76.4985 20.776 76.5544C20.7136 76.6102 20.6513 76.666 20.5924 76.7218C20.5334 76.7811 20.4745 76.8404 20.4191 76.8997C20.3637 76.9625 20.3082 77.0218 20.2528 77.0881C20.2008 77.1509 20.1488 77.2172 20.1003 77.2835C20.0518 77.3498 20.0033 77.4196 19.9583 77.4893C19.9132 77.5591 19.8682 77.6289 19.8266 77.7022C19.785 77.7754 19.7469 77.8487 19.7088 77.9219C19.6707 77.9952 19.636 78.072 19.6048 78.1487C19.5736 78.2255 19.5425 78.3022 19.5113 78.379C19.4836 78.4557 19.4558 78.536 19.4316 78.6162C19.4073 78.693 19.3831 78.7732 19.3623 78.8569C19.3415 78.9372 19.3207 79.0174 19.3034 79.1012C19.2861 79.1814 19.2687 79.2616 19.2549 79.3454C19.241 79.4256 19.2271 79.5093 19.2133 79.5931C19.1994 79.6733 19.189 79.757 19.1786 79.8408C19.1682 79.921 19.1613 80.0048 19.1544 80.0885C19.1475 80.1687 19.1405 80.2524 19.1336 80.3362C19.1267 80.4164 19.1232 80.5002 19.1197 80.5839C19.1163 80.6641 19.1128 80.7479 19.1128 80.8316C19.1128 80.9118 19.1093 80.9956 19.1093 81.0793C19.1093 81.1595 19.1093 81.2433 19.1093 81.327C19.1093 81.4072 19.1128 81.491 19.1163 81.5747C19.1197 81.6549 19.1232 81.7387 19.1267 81.8224C19.1301 81.9026 19.1336 81.9864 19.1405 82.0701C19.144 82.1504 19.1509 82.2341 19.1544 82.3178C19.1613 82.398 19.1648 82.4818 19.1717 82.5655C19.1786 82.6458 19.1856 82.7295 19.1925 82.8132C19.1994 82.8935 19.2064 82.9772 19.2168 83.0609C19.2237 83.1412 19.2341 83.2249 19.241 83.3086C19.2479 83.3889 19.2583 83.4726 19.2687 83.5563C19.2791 83.6401 19.2861 83.7203 19.2964 83.804C19.3068 83.8878 19.3172 83.968 19.3276 84.0517C19.338 84.1355 19.3484 84.2157 19.3588 84.2994C19.3692 84.3832 19.3796 84.4634 19.39 84.5471C19.4004 84.6309 19.4108 84.7111 19.4247 84.7948C19.435 84.8786 19.4489 84.9588 19.4593 85.0425C19.4697 85.1228 19.4836 85.2065 19.494 85.2868C19.5043 85.367 19.5182 85.4507 19.5286 85.5345C19.539 85.6147 19.5529 85.6984 19.5667 85.7822C19.5806 85.8624 19.591 85.9461 19.6048 86.0299C19.6187 86.1101 19.6291 86.1938 19.6429 86.2776C19.6568 86.3578 19.6672 86.4415 19.6811 86.5253C19.6949 86.6055 19.7088 86.6892 19.7192 86.773C19.733 86.8532 19.7469 86.937 19.7608 87.0207C19.7746 87.1044 19.7885 87.1846 19.8023 87.2684C19.8162 87.3521 19.8301 87.4324 19.8439 87.5161C19.8578 87.5963 19.8716 87.6801 19.8855 87.7638C19.8994 87.844 19.9132 87.9278 19.9271 88.0115C19.9409 88.0917 19.9548 88.1755 19.9687 88.2592C19.9825 88.3429 19.9964 88.4232 20.0102 88.5069C20.0241 88.5906 20.038 88.6709 20.0518 88.7546C20.0657 88.8348 20.0795 88.9186 20.0934 89.0023C20.1073 89.086 20.1211 89.1663 20.135 89.25C20.1488 89.3337 20.1627 89.4175 20.1765 89.5012C20.1904 89.5849 20.2043 89.6687 20.2181 89.7489C20.232 89.8326 20.2458 89.9164 20.2632 90.0001C20.2458 89.9164 20.2251 89.8361 20.2077 89.7524C20.1904 89.6687 20.1696 89.5884 20.1523 89.5047C20.135 89.421 20.1142 89.3407 20.0969 89.257C20.0795 89.1733 20.0587 89.093 20.0414 89.0093C20.0241 88.9256 20.0033 88.8453 19.986 88.7616C19.9687 88.6779 19.9479 88.5976 19.9305 88.5139C19.9132 88.4301 19.8924 88.3499 19.8751 88.2662C19.8578 88.1825 19.837 88.1022 19.8197 88.0185C19.8023 87.9347 19.7815 87.8545 19.7642 87.7708C19.7469 87.687 19.7261 87.6068 19.7088 87.5231C19.6915 87.4393 19.6707 87.3591 19.6533 87.2754C19.6326 87.1916 19.6152 87.1114 19.5979 87.0277C19.5771 86.9439 19.5598 86.8637 19.539 86.7835C19.5182 86.6997 19.5009 86.6195 19.4801 86.5392C19.4593 86.4555 19.442 86.3753 19.4212 86.295C19.4004 86.2113 19.3831 86.131 19.3623 86.0508C19.3415 85.9671 19.3242 85.8868 19.3034 85.8066C19.2826 85.7228 19.2618 85.6426 19.2445 85.5624C19.2237 85.4787 19.2029 85.3984 19.1821 85.3182C19.1613 85.2344 19.1405 85.1542 19.1197 85.0739C19.0989 84.9902 19.0782 84.91 19.0574 84.8297C19.0366 84.7495 19.0158 84.6657 18.995 84.5855C18.9742 84.5053 18.95 84.4216 18.9292 84.3413C18.9084 84.2611 18.8841 84.1773 18.8633 84.0971C18.8425 84.0168 18.8183 83.9331 18.7975 83.8564C18.7732 83.7761 18.7524 83.6959 18.7282 83.6156C18.7039 83.5354 18.6797 83.4552 18.6589 83.3749C18.6346 83.2947 18.6104 83.2144 18.5861 83.1342C18.5619 83.0539 18.5376 82.9737 18.5134 82.8935C18.4891 82.8132 18.4614 82.733 18.4371 82.6562C18.4094 82.576 18.3852 82.4957 18.3574 82.419C18.3297 82.3387 18.302 82.2585 18.2777 82.1818C18.25 82.1015 18.2223 82.0248 18.1946 81.9445C18.1669 81.8643 18.1357 81.7875 18.108 81.7108C18.0768 81.6305 18.0491 81.5538 18.0179 81.477C17.9867 81.4003 17.9555 81.32 17.9243 81.2468C17.8931 81.17 17.8585 81.0932 17.8273 81.0165C17.7926 80.9397 17.758 80.863 17.7233 80.7897C17.6887 80.713 17.6506 80.6362 17.6159 80.563C17.5778 80.4862 17.5397 80.4129 17.5016 80.3397C17.4635 80.2664 17.4219 80.1931 17.3803 80.1199C17.3387 80.0466 17.2972 79.9733 17.2521 79.9036C17.2071 79.8303 17.162 79.7605 17.117 79.6908C17.0719 79.621 17.0234 79.5512 16.9749 79.4849C16.9264 79.4151 16.8744 79.3489 16.8259 79.2861C16.7739 79.2198 16.722 79.157 16.6665 79.0942C16.6111 79.0314 16.5556 78.9686 16.5002 78.9093C16.4413 78.85 16.3824 78.7907 16.3235 78.7348C16.2611 78.679 16.2022 78.6232 16.1364 78.5674C16.074 78.515 16.0082 78.4627 15.9424 78.4139C15.8765 78.365 15.8072 78.3162 15.7379 78.2708C15.6686 78.2255 15.5993 78.1801 15.5265 78.1383C15.4538 78.0964 15.381 78.058 15.3083 78.0196C15.2355 77.9813 15.1593 77.9464 15.083 77.915C15.0068 77.8836 14.9306 77.8522 14.8543 77.8208C14.7781 77.7929 14.6984 77.7649 14.6187 77.7405C14.5425 77.7161 14.4628 77.6917 14.3796 77.6708C14.2999 77.6498 14.2203 77.6289 14.1371 77.6114C14.0574 77.594 13.9777 77.5765 13.8945 77.5626C13.8149 77.5486 13.7317 77.5347 13.6485 77.5207C13.5688 77.5068 13.4857 77.4963 13.4025 77.4859C13.3228 77.4754 13.2397 77.4684 13.1565 77.4614C13.0768 77.4544 12.9937 77.4475 12.9105 77.4405C12.8308 77.4335 12.7476 77.43 12.6645 77.4265C12.5848 77.4231 12.5016 77.4196 12.4185 77.4196C12.3388 77.4196 12.2556 77.4161 12.1725 77.4161C12.0928 77.4161 12.0096 77.4161 11.9264 77.4161C11.8467 77.4161 11.7636 77.4196 11.6804 77.4231C11.6007 77.4265 11.5176 77.43 11.4344 77.4335C11.3547 77.437 11.2716 77.4405 11.1884 77.4475C11.1087 77.451 11.0255 77.4579 10.9424 77.4614C10.8627 77.4684 10.7795 77.4719 10.6964 77.4789C10.6167 77.4858 10.5335 77.4928 10.4504 77.4998C10.3707 77.5068 10.2875 77.5138 10.2043 77.5242C10.1246 77.5312 10.0415 77.5417 9.95833 77.5486C9.87517 77.5556 9.79547 77.5661 9.71231 77.5766C9.62915 77.587 9.54946 77.594 9.4663 77.6045C9.38314 77.6149 9.30345 77.6254 9.22029 77.6359C9.13713 77.6463 9.05744 77.6568 8.97428 77.6673C8.89112 77.6777 8.81142 77.6882 8.72826 77.6987C8.6451 77.7091 8.56541 77.7196 8.48225 77.7336C8.39909 77.744 8.31939 77.758 8.23624 77.7684C8.15654 77.7789 8.07338 77.7929 7.99369 77.8033C7.91399 77.8138 7.83083 77.8278 7.74767 77.8382C7.66798 77.8487 7.58482 77.8626 7.50166 77.8766C7.42197 77.8905 7.3388 77.901 7.25565 77.915C7.17595 77.9289 7.09279 77.9394 7.00963 77.9534C6.92993 77.9673 6.84678 77.9778 6.76362 77.9917C6.68392 78.0057 6.60076 78.0196 6.5176 78.0301C6.43791 78.0441 6.35475 78.058 6.27159 78.072C6.18843 78.0859 6.10874 78.0999 6.02558 78.1138C5.94242 78.1278 5.86272 78.1417 5.77956 78.1557C5.69987 78.1696 5.61671 78.1836 5.53355 78.1976C5.45386 78.2115 5.3707 78.2255 5.28754 78.2394C5.20784 78.2534 5.12468 78.2673 5.04152 78.2813C4.95836 78.2953 4.87867 78.3092 4.79551 78.3232C4.71235 78.3371 4.63266 78.3511 4.5495 78.365C4.4698 78.379 4.38664 78.3929 4.30348 78.4069C4.22032 78.4208 4.14063 78.4348 4.05747 78.4488C3.97431 78.4627 3.89115 78.4767 3.80799 78.4906C3.72483 78.5046 3.64167 78.5185 3.56198 78.5325C3.48228 78.5464 3.39912 78.5639 3.3125 78.5778Z" fill="#644E3C"/>
<path d="M0 64.7095C0.0831596 64.7165 0.166319 64.7269 0.246013 64.7339C0.329173 64.7409 0.412335 64.7514 0.49203 64.7583C0.575189 64.7653 0.658348 64.7758 0.738043 64.7828C0.821203 64.7897 0.904362 64.7967 0.984056 64.8072C1.06722 64.8141 1.15038 64.8211 1.23007 64.8281C1.31323 64.8351 1.39639 64.8421 1.47608 64.8491C1.55924 64.856 1.6424 64.863 1.7221 64.87C1.80526 64.877 1.88842 64.8839 1.96811 64.8874C2.05127 64.8944 2.13443 64.8979 2.21412 64.9049C2.29728 64.9118 2.38044 64.9153 2.4636 64.9188C2.54676 64.9223 2.62992 64.9258 2.71308 64.9293C2.79624 64.9328 2.8794 64.9363 2.96256 64.9363C3.04572 64.9398 3.12888 64.9397 3.20857 64.9397C3.29173 64.9397 3.37489 64.9398 3.45459 64.9363C3.53775 64.9328 3.62091 64.9293 3.7006 64.9258C3.78723 64.9223 3.86692 64.9153 3.94662 64.9049C4.03324 64.8979 4.11294 64.8874 4.19263 64.8735C4.27579 64.8595 4.35895 64.8455 4.43518 64.8281C4.51834 64.8107 4.59803 64.7863 4.67426 64.7618C4.75396 64.7374 4.83365 64.706 4.90642 64.6746C4.98265 64.6397 5.05541 64.6013 5.12471 64.563C5.19747 64.5211 5.26331 64.4723 5.32915 64.4234C5.39151 64.3711 5.45388 64.3153 5.51279 64.256C5.56823 64.1966 5.6202 64.1338 5.67218 64.0676C5.72069 64.0048 5.76573 63.935 5.81078 63.8617C5.85236 63.792 5.89047 63.7222 5.92859 63.6454C5.96324 63.5722 5.99789 63.4989 6.02907 63.4186C6.06026 63.3454 6.08798 63.2686 6.11569 63.1884C6.14341 63.1116 6.16767 63.0349 6.19192 62.9546C6.21618 62.8779 6.23697 62.7976 6.26123 62.7174C6.28202 62.6406 6.3028 62.5604 6.32359 62.4767C6.34438 62.3999 6.36171 62.3162 6.37903 62.2359C6.39636 62.1557 6.41368 62.0755 6.43101 61.9952C6.44833 61.915 6.46219 61.8348 6.47952 61.751C6.49338 61.6708 6.5107 61.5905 6.52456 61.5068C6.53842 61.4266 6.55228 61.3463 6.56614 61.2626C6.58 61.1823 6.59386 61.1021 6.60772 61.0184C6.62158 60.9381 6.63544 60.8579 6.64584 60.7742C6.6597 60.6939 6.67009 60.6137 6.68395 60.53C6.69781 60.4497 6.70821 60.366 6.72207 60.2822C6.73593 60.202 6.74633 60.1183 6.76018 60.0345C6.77058 59.9543 6.78444 59.8706 6.79483 59.7903C6.80523 59.7101 6.81909 59.6264 6.82948 59.5426C6.83988 59.4624 6.85373 59.3787 6.86413 59.2949C6.8572 59.3787 6.84681 59.4624 6.83988 59.5426C6.83295 59.6264 6.82255 59.7101 6.81562 59.7903C6.80869 59.8741 6.7983 59.9578 6.79137 60.038C6.78444 60.1218 6.77751 60.2055 6.76711 60.2857C6.76018 60.3695 6.75325 60.4532 6.74632 60.5334C6.73939 60.6172 6.73246 60.7009 6.72553 60.7811C6.7186 60.8649 6.71167 60.9486 6.70474 61.0288C6.69781 61.1126 6.69088 61.1963 6.68742 61.2765C6.68049 61.3603 6.67702 61.444 6.67009 61.5242C6.66316 61.608 6.6597 61.6917 6.65623 61.7754C6.65277 61.8592 6.6493 61.9429 6.64584 62.0266C6.64237 62.1104 6.63891 62.1941 6.63891 62.2778C6.63544 62.3615 6.63545 62.4453 6.63545 62.5255C6.63545 62.6093 6.63544 62.693 6.63891 62.7732C6.64237 62.857 6.64584 62.9407 6.6493 63.0209C6.65277 63.1081 6.6597 63.1884 6.67009 63.2686C6.67702 63.3559 6.68742 63.4361 6.70128 63.5163C6.71514 63.6001 6.729 63.6838 6.74632 63.7605C6.76365 63.8443 6.7879 63.9245 6.81216 64.0013C6.83641 64.0815 6.8676 64.1618 6.89878 64.235C6.93343 64.3118 6.97154 64.385 7.00966 64.4548C7.05124 64.5281 7.09975 64.5944 7.14826 64.6606C7.20024 64.7234 7.25567 64.7863 7.31458 64.8456C7.37348 64.9014 7.43586 64.9537 7.50169 65.006C7.56406 65.0549 7.63336 65.1002 7.70612 65.1456C7.77542 65.1875 7.84472 65.2258 7.92095 65.2642C7.99372 65.2991 8.06648 65.334 8.14618 65.3654C8.21894 65.3968 8.29517 65.4247 8.37486 65.4526C8.45109 65.4805 8.52732 65.5049 8.60702 65.5293C8.68325 65.5538 8.76294 65.5747 8.84264 65.5991C8.91887 65.6201 8.99856 65.641 9.08172 65.6619C9.15795 65.6829 9.24111 65.7003 9.32081 65.7178C9.4005 65.7352 9.48019 65.7526 9.55989 65.7701C9.63958 65.7875 9.71928 65.8015 9.80244 65.8189C9.88213 65.8329 9.96183 65.8503 10.045 65.8643C10.1247 65.8782 10.2044 65.8922 10.2875 65.9061C10.3672 65.9201 10.4469 65.934 10.5301 65.948C10.6098 65.962 10.6895 65.9759 10.7726 65.9864C10.8523 66.0003 10.932 66.0108 11.0152 66.0248C11.0949 66.0387 11.178 66.0492 11.2612 66.0631C11.3409 66.0771 11.4241 66.0876 11.5072 66.1015C11.5869 66.112 11.6701 66.1259 11.7498 66.1364C11.8295 66.1469 11.9126 66.1608 11.9958 66.1713C12.0755 66.1818 12.1586 66.1957 12.2418 66.2062C12.1586 66.1992 12.0755 66.1887 11.9958 66.1817C11.9126 66.1748 11.8295 66.1643 11.7498 66.1573C11.6666 66.1504 11.5834 66.1399 11.5037 66.1329C11.4206 66.1259 11.3374 66.119 11.2577 66.1085C11.1746 66.1015 11.0914 66.0945 11.0117 66.0876C10.9286 66.0806 10.8454 66.0736 10.7657 66.0666C10.6825 66.0597 10.5994 66.0527 10.5197 66.0457C10.4365 66.0387 10.3534 66.0317 10.2737 66.0282C10.1905 66.0213 10.1074 66.0178 10.0277 66.0108C9.9445 66.0038 9.86134 66.0003 9.77818 65.9968C9.69502 65.9934 9.61186 65.9899 9.5287 65.9864C9.44554 65.9829 9.36238 65.9794 9.27922 65.9794C9.19606 65.9759 9.11291 65.9759 9.03321 65.9759C8.95005 65.9759 8.86689 65.9759 8.7872 65.9794C8.70404 65.9829 8.62088 65.9864 8.54119 65.9899C8.45456 65.9934 8.37486 66.0003 8.29517 66.0108C8.20854 66.0178 8.12885 66.0282 8.04915 66.0422C7.96599 66.0562 7.88284 66.0701 7.80661 66.0876C7.72345 66.105 7.64375 66.1294 7.56752 66.1538C7.48783 66.1783 7.40813 66.2097 7.33537 66.2411C7.25914 66.276 7.18638 66.3143 7.11708 66.3527C7.04431 66.3946 6.97847 66.4434 6.91264 66.4922C6.85027 66.5446 6.7879 66.6004 6.729 66.6597C6.67356 66.719 6.62158 66.7818 6.56961 66.8481C6.5211 66.9109 6.47605 66.9807 6.43101 67.0539C6.38943 67.1237 6.35131 67.1935 6.3132 67.2702C6.27855 67.3435 6.2439 67.4168 6.21272 67.497C6.18153 67.5703 6.15381 67.647 6.12609 67.7273C6.09837 67.804 6.07411 67.8808 6.04986 67.961C6.0256 68.0378 6.00482 68.118 5.98056 68.1983C5.95977 68.275 5.93898 68.3553 5.91819 68.439C5.8974 68.5157 5.88008 68.5995 5.86275 68.6797C5.84543 68.76 5.8281 68.8402 5.81078 68.9204C5.79345 69.0007 5.77959 69.0809 5.76227 69.1647C5.74841 69.2449 5.73108 69.3251 5.71722 69.4088C5.70336 69.4891 5.6895 69.5693 5.67564 69.6531C5.66178 69.7333 5.64792 69.8136 5.63406 69.8973C5.6202 69.9775 5.60634 70.0578 5.59595 70.1415C5.58209 70.2217 5.57169 70.302 5.55783 70.3857C5.54397 70.466 5.53358 70.5497 5.51972 70.6334C5.50586 70.7137 5.49546 70.7974 5.4816 70.8811C5.47121 70.9614 5.45735 71.0451 5.44695 71.1253C5.43656 71.2056 5.4227 71.2893 5.4123 71.373C5.40191 71.4533 5.38805 71.537 5.37766 71.6207C5.38458 71.537 5.39498 71.4533 5.40191 71.373C5.40884 71.2893 5.41923 71.2056 5.42616 71.1253C5.43309 71.0416 5.44349 70.9579 5.45042 70.8776C5.45735 70.7939 5.46428 70.7102 5.47467 70.6299C5.4816 70.5462 5.48853 70.4625 5.49546 70.3822C5.50239 70.2985 5.50932 70.2148 5.51625 70.1345C5.52318 70.0508 5.53011 69.9671 5.53704 69.8868C5.54397 69.8031 5.5509 69.7194 5.55437 69.6391C5.5613 69.5554 5.56476 69.4717 5.57169 69.3914C5.57862 69.3077 5.58209 69.224 5.58555 69.1402C5.58902 69.0565 5.59248 68.9728 5.59595 68.889C5.59941 68.8053 5.60288 68.7216 5.60288 68.6378C5.60634 68.5541 5.60634 68.4704 5.60634 68.3901C5.60634 68.3064 5.60634 68.2227 5.60288 68.1424C5.59941 68.0587 5.59595 67.975 5.59248 67.8947C5.58902 67.8075 5.58209 67.7273 5.57169 67.647C5.56476 67.5598 5.55437 67.4796 5.54051 67.3993C5.52665 67.3156 5.51279 67.2319 5.49546 67.1551C5.47814 67.0714 5.45389 66.9911 5.42963 66.9144C5.40538 66.8342 5.37419 66.7539 5.34301 66.6807C5.30836 66.6039 5.27024 66.5306 5.23213 66.4609C5.19055 66.3876 5.14204 66.3213 5.09353 66.255C5.04155 66.1922 4.98611 66.1294 4.92721 66.0701C4.8683 66.0143 4.80593 65.962 4.7401 65.9096C4.67773 65.8608 4.60843 65.8154 4.53566 65.7701C4.46636 65.7282 4.39706 65.6898 4.32083 65.6515C4.24807 65.6166 4.1753 65.5817 4.09561 65.5503C4.02284 65.5189 3.94662 65.491 3.86692 65.4631C3.79069 65.4351 3.71446 65.4107 3.63477 65.3863C3.55854 65.3619 3.47884 65.341 3.39915 65.3165C3.32292 65.2956 3.24322 65.2747 3.16007 65.2537C3.08384 65.2328 3.00068 65.2154 2.92098 65.1979C2.84129 65.1805 2.76159 65.163 2.6819 65.1456C2.6022 65.1281 2.52251 65.1142 2.43935 65.0967C2.35965 65.0828 2.27996 65.0653 2.1968 65.0514C2.11711 65.0374 2.03741 65.0235 1.95425 65.0095C1.87456 64.9956 1.79486 64.9816 1.7117 64.9677C1.63201 64.9537 1.55231 64.9398 1.46915 64.9293C1.38946 64.9153 1.30976 64.9049 1.2266 64.8909C1.14691 64.877 1.06375 64.8665 0.980591 64.8525C0.900896 64.8386 0.817737 64.8281 0.734577 64.8142C0.654883 64.8037 0.571724 64.7897 0.49203 64.7793C0.412335 64.7688 0.329173 64.7548 0.246013 64.7444C0.166319 64.7339 0.0831596 64.7234 0 64.7095Z" fill="#644E3C"/>
</g>
</svg>
