<svg width="17" height="17" viewBox="0 0 17 17" fill="none" xmlns="http://www.w3.org/2000/svg">
<path d="M14.4997 4.49992C14.3229 4.49992 14.1533 4.57016 14.0283 4.69518C13.9032 4.82021 13.833 4.98977 13.833 5.16659V11.8333C13.833 12.3637 13.6223 12.8724 13.2472 13.2475C12.8721 13.6225 12.3634 13.8333 11.833 13.8333H5.16634C4.98953 13.8333 4.81996 13.9035 4.69494 14.0285C4.56991 14.1535 4.49967 14.3231 4.49967 14.4999C4.49967 14.6767 4.56991 14.8463 4.69494 14.9713C4.81996 15.0963 4.98953 15.1666 5.16634 15.1666H11.833C12.7171 15.1666 13.5649 14.8154 14.19 14.1903C14.8152 13.5652 15.1663 12.7173 15.1663 11.8333V5.16659C15.1663 4.98977 15.0961 4.82021 14.9711 4.69518C14.8461 4.57016 14.6765 4.49992 14.4997 4.49992ZM12.4997 10.4999V3.83325C12.4997 3.30282 12.289 2.79411 11.9139 2.41904C11.5388 2.04397 11.0301 1.83325 10.4997 1.83325H3.83301C3.30257 1.83325 2.79387 2.04397 2.41879 2.41904C2.04372 2.79411 1.83301 3.30282 1.83301 3.83325V10.4999C1.83301 11.0304 2.04372 11.5391 2.41879 11.9141C2.79387 12.2892 3.30257 12.4999 3.83301 12.4999H10.4997C11.0301 12.4999 11.5388 12.2892 11.9139 11.9141C12.289 11.5391 12.4997 11.0304 12.4997 10.4999V10.4999ZM7.16634 3.16659H8.49967V6.40659L8.25967 6.20659C8.13988 6.10681 7.98891 6.05217 7.83301 6.05217C7.67711 6.05217 7.52613 6.10681 7.40634 6.20659L7.16634 6.40659V3.16659ZM3.16634 10.4999V3.83325C3.16634 3.65644 3.23658 3.48687 3.3616 3.36185C3.48663 3.23682 3.6562 3.16659 3.83301 3.16659H5.83301V7.83325C5.833 7.9607 5.86952 8.08547 5.93824 8.1928C6.00697 8.30012 6.10501 8.3855 6.22077 8.43882C6.33652 8.49213 6.46513 8.51116 6.59136 8.49363C6.7176 8.4761 6.83616 8.42276 6.93301 8.33992L7.83301 7.58659L8.73301 8.33992C8.85377 8.44319 9.00745 8.49993 9.16634 8.49992C9.26279 8.49924 9.35808 8.47882 9.44634 8.43992C9.56206 8.38636 9.66 8.30075 9.72853 8.19322C9.79706 8.08569 9.83332 7.96076 9.83301 7.83325V3.16659H10.4997C10.6765 3.16659 10.8461 3.23682 10.9711 3.36185C11.0961 3.48687 11.1663 3.65644 11.1663 3.83325V10.4999C11.1663 10.6767 11.0961 10.8463 10.9711 10.9713C10.8461 11.0963 10.6765 11.1666 10.4997 11.1666H3.83301C3.6562 11.1666 3.48663 11.0963 3.3616 10.9713C3.23658 10.8463 3.16634 10.6767 3.16634 10.4999Z" fill="#D2A24C"/>
</svg>
