<svg width="16" height="17" viewBox="0 0 16 17" fill="none" xmlns="http://www.w3.org/2000/svg">
<g clip-path="url(#clip0_459_456)">
<path d="M8 1.53767C10.1375 1.53767 10.3906 1.54705 11.2313 1.58455C12.0125 1.61892 12.4344 1.75017 12.7156 1.85955C13.0875 2.0033 13.3563 2.1783 13.6344 2.45642C13.9156 2.73767 14.0875 3.0033 14.2313 3.37517C14.3406 3.65642 14.4719 4.08142 14.5063 4.85955C14.5438 5.7033 14.5531 5.95642 14.5531 8.0908C14.5531 10.2283 14.5438 10.4814 14.5063 11.322C14.4719 12.1033 14.3406 12.5252 14.2313 12.8064C14.0875 13.1783 13.9125 13.447 13.6344 13.7252C13.3531 14.0064 13.0875 14.1783 12.7156 14.322C12.4344 14.4314 12.0094 14.5627 11.2313 14.597C10.3875 14.6345 10.1344 14.6439 8 14.6439C5.8625 14.6439 5.60938 14.6345 4.76875 14.597C3.9875 14.5627 3.56563 14.4314 3.28438 14.322C2.9125 14.1783 2.64375 14.0033 2.36563 13.7252C2.08438 13.4439 1.9125 13.1783 1.76875 12.8064C1.65938 12.5252 1.52813 12.1002 1.49375 11.322C1.45625 10.4783 1.44688 10.2252 1.44688 8.0908C1.44688 5.9533 1.45625 5.70017 1.49375 4.85955C1.52813 4.0783 1.65938 3.65642 1.76875 3.37517C1.9125 3.0033 2.0875 2.73455 2.36563 2.45642C2.64688 2.17517 2.9125 2.0033 3.28438 1.85955C3.56563 1.75017 3.99063 1.61892 4.76875 1.58455C5.60938 1.54705 5.8625 1.53767 8 1.53767ZM8 0.0970459C5.82813 0.0970459 5.55625 0.106421 4.70313 0.143921C3.85313 0.181421 3.26875 0.318921 2.7625 0.515796C2.23438 0.722046 1.7875 0.993921 1.34375 1.4408C0.896875 1.88455 0.625 2.33142 0.41875 2.85642C0.221875 3.3658 0.084375 3.94705 0.046875 4.79705C0.009375 5.6533 0 5.92517 0 8.09705C0 10.2689 0.009375 10.5408 0.046875 11.3939C0.084375 12.2439 0.221875 12.8283 0.41875 13.3345C0.625 13.8627 0.896875 14.3095 1.34375 14.7533C1.7875 15.197 2.23438 15.472 2.75938 15.6752C3.26875 15.872 3.85 16.0095 4.7 16.047C5.55313 16.0845 5.825 16.0939 7.99688 16.0939C10.1688 16.0939 10.4406 16.0845 11.2938 16.047C12.1438 16.0095 12.7281 15.872 13.2344 15.6752C13.7594 15.472 14.2063 15.197 14.65 14.7533C15.0938 14.3095 15.3688 13.8627 15.5719 13.3377C15.7688 12.8283 15.9063 12.247 15.9438 11.397C15.9813 10.5439 15.9906 10.272 15.9906 8.10017C15.9906 5.9283 15.9813 5.65642 15.9438 4.8033C15.9063 3.9533 15.7688 3.36892 15.5719 2.86267C15.375 2.33142 15.1031 1.88455 14.6563 1.4408C14.2125 0.997046 13.7656 0.722046 13.2406 0.518921C12.7313 0.322046 12.15 0.184546 11.3 0.147046C10.4438 0.106421 10.1719 0.0970459 8 0.0970459Z" fill="#D2A24C"/>
<path d="M8 3.98767C5.73125 3.98767 3.89062 5.8283 3.89062 8.09705C3.89062 10.3658 5.73125 12.2064 8 12.2064C10.2688 12.2064 12.1094 10.3658 12.1094 8.09705C12.1094 5.8283 10.2688 3.98767 8 3.98767ZM8 10.7627C6.52813 10.7627 5.33437 9.56892 5.33437 8.09705C5.33437 6.62517 6.52813 5.43142 8 5.43142C9.47188 5.43142 10.6656 6.62517 10.6656 8.09705C10.6656 9.56892 9.47188 10.7627 8 10.7627Z" fill="#D2A24C"/>
<path d="M13.2312 3.8251C13.2312 4.35635 12.8 4.78448 12.2719 4.78448C11.7406 4.78448 11.3125 4.35322 11.3125 3.8251C11.3125 3.29385 11.7438 2.86572 12.2719 2.86572C12.8 2.86572 13.2312 3.29697 13.2312 3.8251Z" fill="#D2A24C"/>
</g>
<defs>
<clipPath id="clip0_459_456">
<rect width="16" height="16" fill="white" transform="translate(0 0.0970459)"/>
</clipPath>
</defs>
</svg>
