<svg width="16" height="17" viewBox="0 0 16 17" fill="none" xmlns="http://www.w3.org/2000/svg">
<g clip-path="url(#clip0_459_455)">
<path d="M14.8156 0.0970459H1.18125C0.528125 0.0970459 0 0.612671 0 1.25017V14.9408C0 15.5783 0.528125 16.097 1.18125 16.097H14.8156C15.4688 16.097 16 15.5783 16 14.9439V1.25017C16 0.612671 15.4688 0.0970459 14.8156 0.0970459ZM4.74687 13.7314H2.37188V6.09392H4.74687V13.7314ZM3.55938 5.0533C2.79688 5.0533 2.18125 4.43767 2.18125 3.6783C2.18125 2.91892 2.79688 2.3033 3.55938 2.3033C4.31875 2.3033 4.93437 2.91892 4.93437 3.6783C4.93437 4.43455 4.31875 5.0533 3.55938 5.0533ZM13.6344 13.7314H11.2625V10.0189C11.2625 9.13455 11.2469 7.99392 10.0281 7.99392C8.79375 7.99392 8.60625 8.95955 8.60625 9.95642V13.7314H6.2375V6.09392H8.5125V7.13767H8.54375C8.85938 6.53767 9.63438 5.9033 10.7875 5.9033C13.1906 5.9033 13.6344 7.48455 13.6344 9.5408V13.7314Z" fill="#D2A24C"/>
</g>
<defs>
<clipPath id="clip0_459_455">
<rect width="16" height="16" fill="white" transform="translate(0 0.0970459)"/>
</clipPath>
</defs>
</svg>
