<svg width="32" height="32" viewBox="0 0 32 32" fill="none" xmlns="http://www.w3.org/2000/svg">
<path fill-rule="evenodd" clip-rule="evenodd" d="M19.4756 14.33C20.5681 15.1753 20.5681 16.8246 19.4756 17.67C16.5969 19.8974 13.3823 21.6531 9.95233 22.8714L9.33093 23.092C7.96623 23.5767 6.53049 22.6534 6.34652 21.2507C5.89361 17.7972 5.89361 14.2027 6.34652 10.7493C6.53049 9.34653 7.96623 8.42322 9.33093 8.90791L9.95233 9.12861C13.3823 10.3468 16.5969 12.1025 19.4756 14.33ZM18.2517 16.0882C18.3094 16.0435 18.3094 15.9564 18.2517 15.9118C15.5406 13.814 12.5132 12.1605 9.28297 11.0133L8.66157 10.7926C8.52796 10.7451 8.35232 10.8356 8.32954 11.0094C7.89927 14.2902 7.89927 17.7098 8.32954 20.9906C8.35232 21.1643 8.52796 21.2548 8.66157 21.2074L9.28297 20.9867C12.5132 19.8394 15.5406 18.1859 18.2517 16.0882Z" fill="#D2A24C"/>
<path fill-rule="evenodd" clip-rule="evenodd" d="M23.9998 8.33331C24.5521 8.33331 24.9998 8.78103 24.9998 9.33331V22.6666C24.9998 23.2189 24.5521 23.6666 23.9998 23.6666C23.4475 23.6666 22.9998 23.2189 22.9998 22.6666V9.33331C22.9998 8.78103 23.4475 8.33331 23.9998 8.33331Z" fill="#D2A24C"/>
</svg>
